<?xml version="1.0" standalone="no"?><!DOCTYPE svg PUBLIC "-//W3C//DTD SVG 1.1//EN" "http://www.w3.org/Graphics/SVG/1.1/DTD/svg11.dtd"><svg width="200" height="200" viewBox="0 0 200 200" version="1.1" xmlns="http://www.w3.org/2000/svg" xmlns:xlink="http://www.w3.org/1999/xlink"><defs><style type="text/css"><![CDATA[
@font-face { font-family: ifont; src: url("//at.alicdn.com/t/font_1442373896_4754455.eot?#iefix") format("embedded-opentype"), url("//at.alicdn.com/t/font_1442373896_4754455.woff") format("woff"), url("//at.alicdn.com/t/font_1442373896_4754455.ttf") format("truetype"), url("//at.alicdn.com/t/font_1442373896_4754455.svg#ifont") format("svg"); }

]]></style></defs><g class="transform-group"><g transform="scale(0.1953125, 0.1953125)"><path d="M512 971.77c-231.982 0-422.538-190.556-422.538-422.538 0-124.276 49.711-240.266 140.846-323.117 16.57-16.57 49.711-16.57 57.996 0 16.57 16.57 16.57 41.425-8.285 57.996-66.281 66.281-107.706 165.7-107.706 265.121 0 190.556 149.131 339.687 339.687 339.687s339.687-157.417 339.687-339.687c0-99.42-41.425-190.556-115.99-256.836-16.57-16.57-16.57-41.425 0-57.996 16.57-16.57 41.425-16.57 57.996 0 91.135 82.851 149.131 198.842 149.131 323.117-8.285 223.696-198.842 414.253-430.823 414.253zM512 507.807v0c-24.854 0-41.425-16.57-41.425-41.425v-314.831c0-24.854 16.57-41.425 41.425-41.425v0c24.854 0 41.425 16.57 41.425 41.425v314.831c0 24.854-16.57 41.425-41.425 41.425z" fill="#000"></path></g></g></svg>