<?xml version="1.0" encoding="UTF-8"?>
<svg width="200px" height="200px" viewBox="0 0 200 200" version="1.1" xmlns="http://www.w3.org/2000/svg" xmlns:xlink="http://www.w3.org/1999/xlink">
    <!-- Generator: Sketch 43 (38999) - http://www.bohemiancoding.com/sketch -->
    <title>导出Excel</title>
    <desc>Created with Sketch.</desc>
    <defs></defs>
    <g id="乐乎科技" stroke="none" stroke-width="1" fill="none" fill-rule="evenodd">
        <g id="Artboard-2" transform="translate(-3953.000000, -691.000000)">
            <g id="导出Excel" transform="translate(3953.000000, 691.000000)">
                <rect x="0" y="0" width="200" height="200"></rect>
                <path d="M153.233002,42.2198896 L125.960701,42.2198896 L125.960701,15.6217841 L30.3885368,15.6217841 L30.3885368,184.97923 L76.8954797,184.97923 L76.8954797,199.972131 L15,199.972131 L15,0 L143.98319,0 L168.621767,24.6950103 L168.621767,128.939226 L153.233002,128.939226 L153.233002,42.2198896 Z M104.58433,129.127914 L93.508058,111.944545 L82.4315579,129.127914 L55.9070793,129.127914 L80.3917938,91.5580552 L55.9070793,54.1339385 L82.2863829,54.1339385 L93.508058,71.3173071 L104.58433,54.1339385 L130.962719,54.1339385 L106.769954,91.5580552 L130.962719,129.127914 L104.58433,129.127914 Z M186,167.25721 L144.656024,200 L144.656024,177.908697 L85.0314456,177.908697 L85.0314456,157.393826 L144.656024,157.393826 L144.656024,134.515106 L186,167.25721 Z" id="Combined-Shape" fill="#2062E6" fill-rule="nonzero"></path>
            </g>
        </g>
    </g>
</svg>