<?xml version="1.0" encoding="utf-8"?>
<!-- Generator: Adobe Illustrator 19.0.0, SVG Export Plug-In . SVG Version: 6.00 Build 0)  -->
<svg version="1.1" id="图层_1" xmlns="http://www.w3.org/2000/svg" xmlns:xlink="http://www.w3.org/1999/xlink" x="0px" y="0px"
	 viewBox="104 -104.3 349 349" style="enable-background:new 104 -104.3 349 349;" xml:space="preserve">
<style type="text/css">
	.st0{fill:#999999;}
</style>
<g>
	<path class="st0" d="M278.5-104.3C182.1-104.3,104-26.1,104,70.2s78.1,174.5,174.5,174.5S453,166.6,453,70.2
		S374.8-104.3,278.5-104.3z M313.2,162.4l-5.3,5.3c-1.5,1.5-3.8,1.5-5.3,0l-16.9-16.9v36.4c0,2-1.6,3.6-3.6,3.6h-7.2
		c-2,0-3.6-1.6-3.6-3.6v-36.4l-16.9,16.9c-1.5,1.5-3.8,1.5-5.3,0l-5.3-5.3c-1.5-1.5-1.5-3.8,0-5.3l29.9-29.9
		c0.1-0.1,2.4-1.5,4.8-1.5c2.4,0,4.7,1.4,4.9,1.5l29.9,29.9C314.7,158.6,314.7,161,313.2,162.4z M375.2,190.9
		c-2.3-51.4-44.8-92.4-96.8-92.4c-52,0-94.5,41-96.8,92.4c-35.3-28.4-57.9-71.9-57.9-120.7c0-85.4,69.3-154.7,154.7-154.7
		S433.1-15.2,433.1,70.2C433.1,119,410.6,162.5,375.2,190.9z"/>
	<circle class="st0" cx="278.5" cy="42.3" r="48.2"/>
</g>
</svg>
