<?xml version="1.0" encoding="UTF-8"?>
<svg width="200px" height="200px" viewBox="0 0 200 200" version="1.1" xmlns="http://www.w3.org/2000/svg" xmlns:xlink="http://www.w3.org/1999/xlink">
    <!-- Generator: Sketch 43 (38999) - http://www.bohemiancoding.com/sketch -->
    <title>商品导入</title>
    <desc>Created with Sketch.</desc>
    <defs></defs>
    <g id="乐乎科技" stroke="none" stroke-width="1" fill="none" fill-rule="evenodd">
        <g id="Artboard-2" transform="translate(-5434.000000, -691.000000)">
            <g id="商品导入" transform="translate(5011.000000, 178.000000)">
                <rect x="423" y="513" width="200" height="200"></rect>
                <path d="M594.622222,513 L451.377778,513 C435.844444,513 423,525.733333 423,541.377778 L423,684.622222 C423,700.155556 435.733333,713 451.377778,713 L594.622222,713 C610.155556,713 623,700.266667 623,684.622222 L623,541.266667 C623,525.733333 610.266667,513 594.622222,513 Z M534.8,541.066667 L534.8,594.733333 L513.4,594.733333 L513.4,541.066667 L534.8,541.066667 Z M481.444444,594.733333 L566.955556,594.733333 C566.866667,598.911111 565.155556,604.2 561.777778,607.377778 L536.577778,631.066667 C529.6,637.644444 518.355556,637.644444 511.4,631.066667 L486.222222,607.377778 C482.533333,603.888889 480.955556,599.311111 481.155556,594.844444 L481.444444,594.733333 Z M588.466667,669.8 C588.466667,675.777778 583.688889,680.555556 577.711111,680.555556 L470.377778,680.555556 C464.4,680.555556 459.622222,675.777778 459.622222,669.8 L459.622222,659.044444 C459.622222,653.066667 464.4,648.288889 470.377778,648.288889 L577.688889,648.288889 C583.666667,648.288889 588.444444,653.066667 588.444444,659.044444 L588.444444,669.8 L588.466667,669.8 Z" id="Shape" fill="#2062E6" fill-rule="nonzero"></path>
            </g>
        </g>
    </g>
</svg>