<?xml version="1.0" standalone="no"?><!DOCTYPE svg PUBLIC "-//W3C//DTD SVG 1.1//EN" "http://www.w3.org/Graphics/SVG/1.1/DTD/svg11.dtd"><svg width="200" height="200" viewBox="0 0 200 200" version="1.1" xmlns="http://www.w3.org/2000/svg" xmlns:xlink="http://www.w3.org/1999/xlink"><defs><style type="text/css"><![CDATA[
@font-face { font-family: ifont; src: url("//at.alicdn.com/t/font_1442373896_4754455.eot?#iefix") format("embedded-opentype"), url("//at.alicdn.com/t/font_1442373896_4754455.woff") format("woff"), url("//at.alicdn.com/t/font_1442373896_4754455.ttf") format("truetype"), url("//at.alicdn.com/t/font_1442373896_4754455.svg#ifont") format("svg"); }

]]></style></defs><g class="transform-group"><g transform="scale(0.1953125, 0.1953125)"><path d="M760.384 441.376l0-103.616c0 0-0.032-241.728-241.728-241.728-241.696 0-241.728 241.728-241.728 241.728l0 103.616L173.312 441.376l0 483.488L864 924.864 864 441.376 760.384 441.376zM553.184 708.064l0 113.184-69.056 0 0-113.184c-20.544-11.968-34.528-34.016-34.528-59.488 0-38.176 30.944-69.088 69.056-69.088 38.112 0 69.056 30.912 69.056 69.088C587.744 674.048 573.76 696.096 553.184 708.064M691.328 441.344 345.984 441.344l0-103.136c0.384-28.928 10.56-173.12 172.672-173.12s172.288 144.192 172.672 172.672L691.328 441.344z" fill="#000"></path></g></g></svg>