<?xml version="1.0" encoding="UTF-8"?>
<svg width="957px" height="958px" viewBox="0 0 957 958" version="1.1" xmlns="http://www.w3.org/2000/svg" xmlns:xlink="http://www.w3.org/1999/xlink">
    <!-- Generator: Sketch 43 (38999) - http://www.bohemiancoding.com/sketch -->
    <title>添加</title>
    <desc>Created with Sketch.</desc>
    <defs></defs>
    <g id="Page-1" stroke="none" stroke-width="1" fill="none" fill-rule="evenodd">
        <g id="添加" fill-rule="nonzero" fill="#2062E6">
            <path d="M477,0.6 C195.4,0.6 -28.6,243.8 3.4,531.8 C29,749.4 208.2,928.6 425.8,954.2 C713.8,986.2 957,762.2 957,480.6 C957,218.2 739.4,0.6 477,0.6 Z M688.2,512.6 L509,512.6 L509,691.8 C509,711 496.2,723.8 477,723.8 C457.8,723.8 445,711 445,691.8 L445,512.6 L265.8,512.6 C246.6,512.6 233.8,499.8 233.8,480.6 C233.8,461.4 246.6,448.6 265.8,448.6 L445,448.6 L445,269.4 C445,250.2 457.8,237.4 477,237.4 C496.2,237.4 509,250.2 509,269.4 L509,448.6 L688.2,448.6 C707.4,448.6 720.2,461.4 720.2,480.6 C713.8,499.8 701,512.6 688.2,512.6 L688.2,512.6 Z" id="Shape"></path>
        </g>
    </g>
</svg>