<?xml version="1.0" encoding="UTF-8"?>
<svg width="952px" height="811px" viewBox="0 0 952 811" version="1.1" xmlns="http://www.w3.org/2000/svg" xmlns:xlink="http://www.w3.org/1999/xlink">
    <!-- Generator: Sketch 43 (38999) - http://www.bohemiancoding.com/sketch -->
    <title>刷新</title>
    <desc>Created with Sketch.</desc>
    <defs></defs>
    <g id="Page-1" stroke="none" stroke-width="1" fill="none" fill-rule="evenodd">
        <g id="刷新" fill-rule="nonzero" fill="#2062E6">
            <path d="M650.2725,657.5927 C597.387,695.111 535.5087,713.9199 472.2511,713.0536 C463.8871,712.9655 455.5804,712.5262 447.3761,711.7951 C444.0225,711.4746 440.6669,710.9186 437.2979,710.4936 C430.8375,709.6273 424.3627,708.7508 418.0764,707.5189 C414.1791,706.7714 410.3718,705.7607 406.5636,704.8667 C400.396,703.4003 394.2561,701.9217 388.2371,700.1061 C385.3361,699.1978 382.5099,698.1574 379.6386,697.1764 C372.6949,694.8181 365.7798,692.3872 359.0419,689.5302 C357.5192,688.9127 356.0539,688.1847 354.5302,687.4935 C346.6782,683.9914 338.8845,680.3163 331.3837,676.1855 C331.0181,675.994 330.7099,675.8332 330.3443,675.6448 C304.8979,661.4921 281.605,643.826 261.1844,623.1843 C260.8762,622.8638 260.5393,622.4808 260.2034,622.1152 C253.8597,615.6681 247.8099,608.9302 242.052,601.8994 C240.8508,600.4044 239.6784,598.7936 238.4629,597.2556 C196.9028,544.6077 171.8374,477.9811 171.8374,405.4942 L242.335704,405.4942 C244.156404,405.4942 245.918704,404.5183 246.842304,402.8031 C247.767004,401.0879 247.612304,399.0798 246.610904,397.5582 L128.1073,217.5871 C127.1918,216.1975 125.618,215.2831 123.8311,215.2831 C122.0442,215.2831 120.4693,216.1986 119.5549,217.5871 L1.0493,397.554 C0.0478,399.0757 -0.1058,401.0837 0.8179,402.7989 C1.7426,404.5141 3.5039,405.49 5.3255,405.49 L75.83814,405.49 C75.83814,490.7063 102.07504,569.6945 146.65284,635.0022 C147.19554,635.9125 147.59084,636.8792 148.19084,637.7885 C152.80494,644.467 157.93314,650.6346 162.88424,656.9486 C164.73054,659.3366 166.45904,661.7962 168.37804,664.1391 C175.67404,673.1052 183.42264,681.5287 191.39244,689.7616 C192.15434,690.5818 192.85774,691.3867 193.60534,692.1199 C220.35534,719.2354 250.60634,742.0901 283.50844,760.3572 C284.35834,760.8712 285.20824,761.3996 286.14524,761.8819 C295.62334,767.0367 305.36474,771.6959 315.23914,776.1063 C317.70084,777.1743 320.10314,778.3765 322.60784,779.4323 C331.04664,782.9774 339.71784,786.0822 348.46384,789.0425 C352.59464,790.4638 356.69684,791.9138 360.88594,793.2163 C368.51884,795.5019 376.32684,797.4208 384.20754,799.3101 C389.42274,800.5409 394.60724,801.8742 399.92694,802.8992 C402.13874,803.3539 404.21854,804.043 406.38834,804.3789 C413.80004,805.7121 421.27114,806.4586 428.69824,807.3669 C431.37904,807.6905 434.01584,808.1451 436.69774,808.436 C450.04354,809.7703 463.34424,810.6478 476.63274,810.6478 C557.95164,810.6478 637.29324,785.4666 705.35234,737.1963 C727.03554,721.7718 732.32454,691.5064 717.13244,669.5171 C701.8964,647.4848 671.9537,642.1672 650.2725,657.5927 L650.2725,657.5927 Z M875.9171,405.49 C875.8731,320.539 849.7969,241.7094 805.4393,176.5349 C804.7942,175.4218 804.3539,174.2934 803.6237,173.253 C798.1156,165.2842 792.0924,157.8561 786.1031,150.4147 C785.415,149.5064 784.7709,148.5541 784.0377,147.6601 C743.4422,97.7933 692.4788,59.2797 634.716,34.0985 C633.1175,33.395 631.5518,32.6188 629.9411,31.9153 C620.7251,28.0773 611.2756,24.6787 601.7852,21.4705 C598.3568,20.3277 595.0022,19.0682 591.5012,18.0278 C583.2242,15.4934 574.8295,13.428 566.361,11.4496 C561.6885,10.3508 557.016,9.1497 552.283,8.2127 C549.9401,7.758 547.7282,7.0556 545.414,6.6306 C539.1,5.5318 532.7563,5.0485 526.428,4.214 C522.033,3.6569 517.7547,2.9688 513.331,2.5142 C502.6957,1.5178 492.1465,1.0939 481.6003,0.9034 C479.666,0.9034 477.8064,0.5952 475.8874,0.5952 C475.5362,0.5952 475.2146,0.6986 474.8624,0.7273 C393.6448,0.7858 314.4794,25.6168 246.5062,73.8277 C224.7667,89.2092 219.4777,119.5042 234.6841,141.508 C249.8608,163.5117 279.8476,168.8437 301.5431,153.4171 C354.0467,116.1937 415.2962,97.3541 478.1135,97.9255 C487.1523,97.9839 496.0448,98.4375 504.8348,99.2731 C507.5443,99.5813 510.2262,99.9909 512.9203,100.3278 C520.1436,101.2218 527.3065,102.2611 534.3659,103.6681 C537.4871,104.2835 540.5642,105.0884 543.6085,105.7929 C550.5389,107.374 557.454,109.0738 564.2216,111.1402 C566.3597,111.8283 568.4681,112.6045 570.6073,113.308 C578.3283,115.8711 585.9304,118.6256 593.4036,121.7755 C594.1634,122.097 594.9416,122.4933 595.6738,122.8005 C640.4124,142.2841 679.6592,172.272 710.2768,209.8036 C710.4683,210.0227 710.6567,210.3166 710.8339,210.5358 C753.932,263.6548 779.8771,331.5542 779.9058,405.49 L709.3778,405.49 C707.5571,405.49 705.7948,406.4659 704.8712,408.1811 C703.9476,409.8963 704.1012,411.9044 705.1036,413.426 L823.6357,593.3797 C824.5512,594.7682 826.125,595.6837 827.9129,595.6837 C829.6998,595.6827 831.2737,594.7672 832.1881,593.3787 L950.6649,413.425 C951.6674,411.9033 951.821,409.8963 950.8963,408.1801 C949.9727,406.4649 948.2103,405.489 946.3897,405.489 L875.917056,405.489 L875.9171,405.49 Z" id="Shape"></path>
        </g>
    </g>
</svg>