<?xml version="1.0" encoding="UTF-8"?>
<svg width="200px" height="200px" viewBox="0 0 200 200" version="1.1" xmlns="http://www.w3.org/2000/svg" xmlns:xlink="http://www.w3.org/1999/xlink">
    <!-- Generator: Sketch 43 (38999) - http://www.bohemiancoding.com/sketch -->
    <title>上架</title>
    <desc>Created with Sketch.</desc>
    <defs></defs>
    <g id="乐乎科技" stroke="none" stroke-width="1" fill="none" fill-rule="evenodd">
        <g id="Artboard-2" transform="translate(-4303.000000, -691.000000)">
            <g id="上架" transform="translate(4303.000000, 691.000000)">
                <rect x="0" y="0" width="200" height="200"></rect>
                <path d="M6.24980281,74.9985352 L168.746704,74.9985352 L168.746704,74.9985352 C172.198259,74.9985352 174.996507,72.2002876 174.996507,68.7487324 C174.996507,65.2971772 172.198259,62.4989296 168.746704,62.4989296 L168.746704,62.4989296 L6.24980281,62.4989296 L6.24980281,62.4989296 C2.79824763,62.4989296 1.42108547e-14,65.2971772 1.42108547e-14,68.7487324 C1.42108547e-14,72.2002876 2.79824763,74.9985352 6.24980281,74.9985352 L6.24980281,74.9985352 Z M6.24980281,12.4996056 L168.746704,12.4996056 L168.746704,12.4996056 C172.198259,12.4996056 174.996507,9.701358 174.996507,6.24980281 C174.996507,2.79824763 172.198259,0 168.746704,0 L168.746704,0 L6.24980281,0 L6.24980281,0 C2.79824763,0 1.42108547e-14,2.79824763 1.42108547e-14,6.24980281 C1.42108547e-14,9.701358 2.79824763,12.4996056 6.24980281,12.4996056 L6.24980281,12.4996056 Z M6.24980281,137.497239 L97.4825462,137.497239 L107.743914,124.997408 L6.24980281,124.997408 L6.24980281,124.997408 C2.79824763,124.997408 2.84217094e-14,127.795656 2.84217094e-14,131.247211 C2.84217094e-14,134.698766 2.79824763,137.497014 6.24980281,137.497014 L6.24980281,137.497014 L6.24980281,137.497239 Z M111.409332,187.496338 L6.24980281,187.496338 L6.24980281,187.496338 C2.79824763,187.496338 0,190.294586 0,193.746141 C0,197.197696 2.79824763,199.995944 6.24980281,199.995944 L6.24980281,199.995944 L113.674613,199.995944 C112.263207,197.195217 111.434122,193.892397 111.428262,190.396897 L111.409332,187.496338 L111.409332,187.496338 Z M198.138333,151.873837 L158.450631,103.528627 C156.294874,101.350109 153.304398,100.000901 149.998873,100.000901 C146.693349,100.000901 143.702872,101.349883 141.548017,103.5275 L101.851752,151.873611 C100.693421,153.449752 99.9979718,155.429056 99.9979718,157.570615 L99.9979718,157.585714 L99.9979718,157.627405 C99.9979718,162.893754 104.257204,167.165155 109.51927,167.184986 L119.048005,167.184986 C121.667095,167.184986 123.809556,169.346377 123.809556,171.984847 L123.9326,190.488392 L123.9326,190.507547 C123.9326,195.745951 128.175832,199.993239 133.412433,199.999775 L166.589369,199.999775 C171.826872,199.993239 176.069878,195.745951 176.069878,190.507547 L176.069878,190.487265 L176.192923,171.984847 C176.192923,169.346377 178.335159,167.184986 180.950417,167.184986 L190.477124,167.184986 C195.740768,167.16538 200,162.893979 200,157.627405 L200,157.582785 L200,157.585038 C200,155.437619 199.301621,153.453358 198.119853,151.847019 L198.138333,151.873837 Z" id="Shape" fill="#2062E6" fill-rule="nonzero"></path>
            </g>
        </g>
    </g>
</svg>