<?xml version="1.0" encoding="UTF-8"?>
<svg width="200px" height="200px" viewBox="0 0 200 200" version="1.1" xmlns="http://www.w3.org/2000/svg" xmlns:xlink="http://www.w3.org/1999/xlink">
    <!-- Generator: Sketch 43 (38999) - http://www.bohemiancoding.com/sketch -->
    <title>删除</title>
    <desc>Created with Sketch.</desc>
    <defs></defs>
    <g id="乐乎科技" stroke="none" stroke-width="1" fill="none" fill-rule="evenodd">
        <g id="Artboard-2" transform="translate(-3603.000000, -691.000000)">
            <g id="删除" transform="translate(3603.000000, 691.000000)">
                <rect x="0" y="0" width="200" height="200"></rect>
                <path d="M17,31.0221354 C17,25.3081598 21.6817146,20.6597223 27.4419848,20.6597223 L79.6301644,20.6597223 L79.6301644,10.3407117 C79.6301644,4.61154512 84.2944829,0 90.0678003,0 L110.947421,0 C116.698993,0 121.385057,4.63324648 121.385057,10.3407117 L121.385057,20.6966145 L173.551492,20.6966145 C179.313936,20.6966145 184,25.3255207 184,31.0438367 L184,41.4105902 L17,41.4105902 L17,31.0221354 Z M173.553666,62.0486111 L173.553666,82.7408854 L173.553666,189.626736 C173.553666,195.377604 168.878475,200 163.11603,200 L37.8861443,200 C32.108478,200 27.4441593,195.377604 27.4441593,189.626736 L27.4441595,82.7300348 L27.4441595,62.0486111 L27.4441595,51.71875 L173.553666,51.71875 L173.553666,62.0486111 L173.553666,62.0486111 Z M69.1881796,82.7408854 C69.1881796,77.0377604 64.4912435,72.3784721 58.7331477,72.3784721 C52.992448,72.3784721 48.3129079,77.0377604 48.3129079,82.7408854 L48.3129077,168.967014 C48.3129077,174.674479 52.9946223,179.296875 58.7505436,179.296875 C64.5238609,179.296875 69.1881794,174.674479 69.1881794,168.967014 L69.1881796,82.7408854 L69.1881796,82.7408854 Z M110.949596,82.7408854 C110.949596,77.0377604 106.241787,72.3784721 100.501087,72.3784721 C94.7386424,72.3784721 90.0699748,77.0377604 90.0699748,82.7408854 L90.069975,168.967014 C90.069975,174.674479 94.7560385,179.296875 100.501087,179.296875 C106.241787,179.296875 110.949596,174.674479 110.949596,168.967014 L110.949596,82.7408854 Z M152.689267,82.7408854 C152.689267,77.0377604 147.992331,72.3784721 142.240758,72.3784721 C136.478314,72.3784721 131.803122,77.0377604 131.803122,82.7408854 L131.803122,168.967014 C131.803122,174.674479 136.489186,179.296875 142.240758,179.296875 C147.992331,179.296875 152.689267,174.674479 152.689267,168.967014 L152.689267,82.7408854 Z" id="Shape" fill="#2062E6" fill-rule="nonzero"></path>
            </g>
        </g>
    </g>
</svg>