<?xml version="1.0" encoding="UTF-8"?>
<svg width="200px" height="200px" viewBox="0 0 200 200" version="1.1" xmlns="http://www.w3.org/2000/svg" xmlns:xlink="http://www.w3.org/1999/xlink">
    <!-- Generator: Sketch 43 (38999) - http://www.bohemiancoding.com/sketch -->
    <title>下架</title>
    <desc>Created with Sketch.</desc>
    <defs></defs>
    <g id="乐乎科技" stroke="none" stroke-width="1" fill="none" fill-rule="evenodd">
        <g id="Artboard-2" transform="translate(-4653.000000, -691.000000)">
            <g id="下架" transform="translate(4653.000000, 691.000000)">
                <rect x="0" y="0" width="200" height="200"></rect>
                <path d="M6.24999757,12.5 L168.749934,12.5 C172.201713,12.5 174.999932,9.70177969 174.999932,6.25 C174.999932,2.79822031 172.201713,0 168.749934,0 L6.24999757,0 C2.79821923,0 0,2.79822031 0,6.25 C0,9.70177969 2.79821923,12.5 6.24999757,12.5 Z M6.24999757,137.5 L88.0922734,137.5 C89.2422634,132.529649 92.0804521,128.111968 96.1230395,125 L6.24999757,125 C2.79821923,125 0,127.79822 0,131.25 C0,134.70178 2.79821923,137.5 6.24999757,137.5 Z M6.24999757,75 L168.749934,75 C172.201713,75 174.999932,72.2017797 174.999932,68.75 C174.999932,65.2982203 172.201713,62.5 168.749934,62.5 L6.24999757,62.5 C2.79821923,62.5 0,65.2982203 0,68.75 C0,72.2017797 2.79821923,75 6.24999757,75 Z M6.24999757,187.5 C2.79821923,187.5 0,190.29822 0,193.75 C0,197.20178 2.79821923,200 6.24999757,200 L128.261489,200 L117.999954,187.5 L6.24999757,187.5 Z M190.476849,132.811538 L180.94993,132.811538 C178.313116,132.792508 176.18621,130.648421 176.188393,128.011538 L176.065316,109.507692 C176.070421,106.988844 175.07418,104.571244 173.29597,102.787262 C171.517759,101.00328 169.103402,99.9992105 166.584551,99.9961538 L133.40764,99.9961538 C130.888789,99.9992105 128.474432,101.00328 126.696222,102.787262 C124.918011,104.571244 123.92177,106.988844 123.926875,109.507692 L123.803798,128.011538 C123.803798,130.65 121.661491,132.811538 119.046108,132.811538 L109.519188,132.811538 C106.982637,132.820701 104.553676,133.837402 102.766918,135.637866 C100.98016,137.438331 99.9820489,139.874991 99.9922688,142.411538 C99.9922688,144.55 100.68073,146.515385 101.84996,148.123077 L141.538406,196.469231 C143.77152,198.726724 146.814942,199.99704 149.990326,199.99704 C153.165711,199.99704 156.209132,198.726724 158.442246,196.469231 L198.130692,148.123077 L198.138384,148.123077 C199.311461,146.515385 199.999922,144.55 199.999922,142.411538 C200.010143,139.875655 199.01256,137.439576 197.226633,135.639222 C195.440706,133.838868 193.012732,132.821719 190.476849,132.811538 L190.476849,132.811538 Z" id="Shape" fill="#2062E6" fill-rule="nonzero"></path>
            </g>
        </g>
    </g>
</svg>