<?xml version="1.0" standalone="no"?><!DOCTYPE svg PUBLIC "-//W3C//DTD SVG 1.1//EN" "http://www.w3.org/Graphics/SVG/1.1/DTD/svg11.dtd"><svg class="icon" width="200px" height="200.00px" viewBox="0 0 1024 1024" version="1.1" xmlns="http://www.w3.org/2000/svg"><path d="M888.909 1024H135.047c-47.198 0-85.623-38.425-85.623-85.645V85.645C49.424 38.425 87.85 0 135.047 0h575.008l264.52 269.288v669.067c0 47.22-38.424 85.645-85.666 85.645zM135.047 44.4c-22.738 0-41.223 18.485-41.223 41.245v852.71c0 22.76 18.485 41.245 41.223 41.245h753.862c22.76 0 41.267-18.485 41.267-41.245V287.437L691.436 44.4h-556.39z" fill="#fff" /><path d="M221.43 215.69h251.63v44.4H221.43v-44.4zM221.43 329.532h251.63v44.4H221.43v-44.4zM221.43 443.375h251.63v44.4H221.43v-44.4zM221.43 617.103H799.57v44.4H221.43v-44.4zM221.43 763.91H799.57v44.4H221.43v-44.4zM950.832 299.03h-180.69c-47.197 0-85.622-38.426-85.622-85.645V28.287h44.4v185.098c0 22.76 18.486 41.244 41.223 41.244h180.689v44.4z" fill="#fff" /></svg>