<?xml version="1.0" encoding="UTF-8"?>
<svg width="200px" height="200px" viewBox="0 0 200 200" version="1.1" xmlns="http://www.w3.org/2000/svg" xmlns:xlink="http://www.w3.org/1999/xlink">
    <!-- Generator: Sketch 43 (38999) - http://www.bohemiancoding.com/sketch -->
    <title>搜索</title>
    <desc>Created with Sketch.</desc>
    <defs></defs>
    <g id="乐乎科技" stroke="none" stroke-width="1" fill="none" fill-rule="evenodd">
        <g id="Artboard-2" transform="translate(-5003.000000, -691.000000)">
            <g id="搜索" transform="translate(5003.000000, 691.000000)">
                <rect x="0" y="0" width="200" height="200"></rect>
                <path d="M136.180477,121.829545 L128.461975,121.829545 L125.567537,118.931818 C135.215664,108.113636 141.197503,93.8181818 141.197503,78.1704546 C141.197503,43.0113637 113.024972,15 78.0987514,15 C43.1725312,15 15,43.2045454 15,78.1704546 C15,113.329545 43.1725312,141.340909 78.0987514,141.340909 C93.7287174,141.340909 108.393871,135.352273 118.813848,125.693182 L121.708286,128.590909 L121.708286,136.318182 L170.334847,185 L185,170.318182 L136.180477,121.829545 Z M77.7128262,121.829545 C53.3995459,121.829545 33.910329,102.318182 33.910329,77.9772727 C33.910329,53.6363636 53.3995459,34.1249999 77.7128262,34.1249999 C102.026106,34.1249999 121.515323,53.6363636 121.515323,77.9772727 C121.515323,102.318182 102.026106,121.829545 77.7128262,121.829545 Z" id="Shape" fill="#2062E6" fill-rule="nonzero"></path>
            </g>
        </g>
    </g>
</svg>