<?xml version="1.0" standalone="no"?><!DOCTYPE svg PUBLIC "-//W3C//DTD SVG 1.1//EN" "http://www.w3.org/Graphics/SVG/1.1/DTD/svg11.dtd"><svg class="icon" width="200px" height="199.61px" viewBox="0 0 1026 1024" version="1.1" xmlns="http://www.w3.org/2000/svg"><path d="M1023.05629 820.184174c0 112.043085-90.829054 202.87214-202.87214 202.87214l-617.312034 0c-112.043085 0-202.87214-90.829054-202.87214-202.87214l0-617.312034c0-112.043085 90.829054-202.87214 202.87214-202.87214l617.312034 0c112.043085 0 202.87214 90.829054 202.87214 202.87214L1023.05629 820.184174z" fill="#fff" /><path d="M581.545988 586.231726c0 0-7.059756-32.193715 4.22563-47.372447 3.208329-4.314579 6.325664-8.199746 9.350982-11.863049 46.589279-36.187257 77.558144-100.220933 77.558144-173.193558 0-112.932584-74.155556-204.482439-165.630775-204.482439s-165.630775 91.549855-165.630775 204.482439c0 74.368218 32.160998 139.457023 80.244021 175.243495 2.320876 3.080528 4.549734 6.316463 6.655903 9.813112 9.498209 15.763551-0.226976 48.371343-0.226976 48.371343s-202.210639 74.31812-202.210639 129.528378 0 104.286044 0 104.286044l23.51548 24.537893c0 0 217.773797 51.12061 511.206097 0l27.605129-24.537893 0-101.218807C788.209232 719.826238 792.98083 676.884926 581.545988 586.231726zM529.544059 824.112282l-44.986137 0 0-94.061922 44.986137 0L529.544059 824.112282zM529.544059 708.579704l-44.986137 0 0-51.12061 44.986137 0L529.544059 708.579704z"  /></svg>