<?xml version="1.0" standalone="no"?><!DOCTYPE svg PUBLIC "-//W3C//DTD SVG 1.1//EN" "http://www.w3.org/Graphics/SVG/1.1/DTD/svg11.dtd"><svg class="icon" width="200px" height="200.00px" viewBox="0 0 1024 1024" version="1.1" xmlns="http://www.w3.org/2000/svg"><path d="M794.213653 400.890098C798.047994 382.318152 800 363.284158 800 344 800 189.36027 674.63973 64 520 64 367.217835 64 243.015933 186.366651 240.054099 338.440147L240.054099 338.440147C139.403548 353.95527 64 440.931494 64 544 64 658.875227 157.124772 752 272 752L360.587037 752C369.423592 752 376.587037 744.836555 376.587037 736 376.587037 727.163445 369.423592 720 360.587037 720L272 720C174.797885 720 96 641.202115 96 544 96 455.96672 161.029253 381.792483 247.361587 369.708938 248.504637 369.54895 249.602478 369.271888 250.64469 368.891562 252.547565 369.593995 254.61657 369.94391 256.769294 369.864744 265.599882 369.54 272.495229 362.118138 272.170485 353.28755 272.05692 350.199456 272 347.103283 272 344 272 207.033382 383.033382 96 520 96 656.966618 96 768 207.033382 768 344 768 366.626102 764.973942 388.834642 759.067238 410.211707 757.381989 416.310826 759.465741 422.561293 763.912269 426.483066 766.845854 429.862781 771.173341 432 776 432 859.947282 432 928 500.052718 928 584 928 641.266608 884.996763 704.537629 839.190016 704.537629 810.051314 704.537629 810.051314 704.537629 804.380587 704.537629 803.597541 704.53763 803.597541 704.53763 803.012875 704.53763 800.074656 704.53763 800.074656 704.53763 771.957605 704.53763 748.835915 704.53763 748.835915 704.53763 724.989517 704.537629 669.145518 704.537629 669.145518 704.537629 622.608853 704.537629 585.379522 704.537629 585.379522 704.537629 576.072189 704.537629 567.235632 704.537629 560.072189 711.701072 560.072189 720.537629 560.072189 729.374184 567.235632 736.537629 576.072189 736.537629 585.379522 736.537629 585.379522 736.537629 622.608853 736.537629 669.145518 736.537629 669.145518 736.537629 724.989515 736.537629 748.835915 736.53763 748.835915 736.53763 771.957605 736.53763 800.074656 736.53763 800.074656 736.53763 803.012888 736.53763 803.597552 736.53763 803.597552 736.53763 804.380597 736.537629 810.051315 736.537629 810.051315 736.537629 839.190016 736.537629 905.87789 736.537629 960 656.907317 960 584 960 488.525866 887.284093 410.035442 794.213653 400.890098L794.213653 400.890098ZM496 448 496 944C496 952.836555 503.163445 960 512 960 520.836555 960 528 952.836555 528 944L528 448C528 439.163445 520.836555 432 512 432 503.163445 432 496 439.163445 496 448ZM378.294477 524.527229 522.323714 410.091125 502.41709 410.091125 646.446312 524.527229C653.364912 530.024291 663.429795 528.871907 668.926858 521.953307 674.42392 515.034707 673.271536 504.969824 666.352936 499.472762L522.323714 385.036658C516.495952 380.406302 508.244853 380.406302 502.41709 385.036658L358.387854 499.472762C351.469254 504.969822 350.31687 515.034706 355.813933 521.953306 361.310994 528.871907 371.375877 530.024291 378.294477 524.527229Z" fill="#bfbfbf" /></svg>